  0
SECTION
  2
HEADER
  9
$ACADVER
  1
AC1006
  9
$EXTMIN
 10
0.000000
 20
0.000000
 30
0.000000
  9
$EXTMAX
 10
2468.000000
 20
2400.000000
 30
0.000000
  0
ENDSEC
  0
SECTION
  2
ENTITIES
  0
POLYLINE
  8
0
 66
1
 70
1
  0
VERTEX
  8
0
 10
1196.111797
 20
2053.515473
 42
0.056461
  0
VERTEX
  8
0
 10
1178.150156
 20
2047.253760
 42
0.055560
  0
VERTEX
  8
0
 10
1161.938708
 20
2037.106950
 42
0.050748
  0
VERTEX
  8
0
 10
1147.175979
 20
2022.744230
 42
0.035342
  0
VERTEX
  8
0
 10
1133.523369
 20
2003.903480
 42
0.025857
  0
VERTEX
  8
0
 10
1123.182750
 20
1985.185135
 42
0.021630
  0
VERTEX
  8
0
 10
1114.139465
 20
1964.364257
 42
0.017170
  0
VERTEX
  8
0
 10
1105.273551
 20
1938.661777
 42
0.007805
  0
VERTEX
  8
0
 10
1095.368133
 20
1904.500000
 42
-0.000628
  0
VERTEX
  8
0
 10
1093.132351
 20
1896.353861
 42
-0.000677
  0
VERTEX
  8
0
 10
1090.931331
 20
1888.415639
 42
-0.000638
  0
VERTEX
  8
0
 10
1089.024668
 20
1881.608675
 42
-0.003253
  0
VERTEX
  8
0
 10
1087.934411
 20
1877.829835
 42
0.000000
  0
VERTEX
  8
0
 10
1085.962862
 20
1871.159671
 42
0.000000
  0
VERTEX
  8
0
 10
960.734815
 20
1768.329835
 42
0.000384
  0
VERTEX
  8
0
 10
912.243747
 20
1728.449425
 42
0.000588
  0
VERTEX
  8
0
 10
870.275947
 20
1693.796889
 42
0.000194
  0
VERTEX
  8
0
 10
834.003224
 20
1663.751181
 42
0.016486
  0
VERTEX
  8
0
 10
828.641883
 20
1659.000000
 42
0.030946
  0
VERTEX
  8
0
 10
820.351093
 20
1650.115089
 42
0.037159
  0
VERTEX
  8
0
 10
813.759696
 20
1640.777339
 42
0.037642
  0
VERTEX
  8
0
 10
808.688965
 20
1630.673481
 42
0.033250
  0
VERTEX
  8
0
 10
804.943846
 20
1619.500000
 42
0.015703
  0
VERTEX
  8
0
 10
803.865829
 20
1614.801402
 42
0.029146
  0
VERTEX
  8
0
 10
803.336251
 20
1610.927181
 42
0.024778
  0
VERTEX
  8
0
 10
803.215580
 20
1606.622931
 42
0.008370
  0
VERTEX
  8
0
 10
803.455557
 20
1600.353308
 42
0.025928
  0
VERTEX
  8
0
 10
805.097941
 20
1585.039631
 42
0.016480
  0
VERTEX
  8
0
 10
808.514484
 20
1567.430739
 42
0.014004
  0
VERTEX
  8
0
 10
813.765889
 20
1547.085885
 42
0.008545
  0
VERTEX
  8
0
 10
821.043498
 20
1523.366414
 42
-0.010613
  0
VERTEX
  8
0
 10
825.528485
 20
1508.530226
 42
-0.050155
  0
VERTEX
  8
0
 10
827.048721
 20
1499.784973
 42
-0.080221
  0
VERTEX
  8
0
 10
826.449429
 20
1493.008600
 42
-0.057406
  0
VERTEX
  8
0
 10
823.742867
 20
1485.882809
 42
-0.044541
  0
VERTEX
  8
0
 10
820.537995
 20
1480.846317
 42
-0.053260
  0
VERTEX
  8
0
 10
816.656610
 20
1476.780115
 42
-0.054273
  0
VERTEX
  8
0
 10
812.070293
 20
1473.684077
 42
-0.049209
  0
VERTEX
  8
0
 10
806.774370
 20
1471.525636
 42
-0.070886
  0
VERTEX
  8
0
 10
800.178435
 20
1470.548059
 42
-0.000420
  0
VERTEX
  8
0
 10
738.506764
 20
1470.254340
 42
-0.000883
  0
VERTEX
  8
0
 10
640.852511
 20
1470.043692
 42
-0.000098
  0
VERTEX
  8
0
 10
417.818499
 20
1470.000000
 42
0.000000
  0
VERTEX
  8
0
 10
34.000000
 20
1470.000000
 42
0.000000
  0
VERTEX
  8
0
 10
34.000000
 20
1200.000000
 42
0.000000
  0
VERTEX
  8
0
 10
34.000000
 20
930.000000
 42
0.000000
  0
VERTEX
  8
0
 10
193.750000
 20
929.859782
 42
-0.000180
  0
VERTEX
  8
0
 10
271.329673
 20
929.763689
 42
-0.000077
  0
VERTEX
  8
0
 10
375.164062
 20
929.581630
 42
-0.000076
  0
VERTEX
  8
0
 10
485.911328
 20
929.353560
 42
-0.000100
  0
VERTEX
  8
0
 10
587.000000
 20
929.109782
 42
0.000000
  0
VERTEX
  8
0
 10
820.500000
 20
928.500000
 42
0.000000
  0
VERTEX
  8
0
 10
825.127283
 20
926.220200
 42
-0.042829
  0
VERTEX
  8
0
 10
829.604700
 20
923.515659
 42
-0.040427
  0
VERTEX
  8
0
 10
833.649786
 20
920.040196
 42
-0.040764
  0
VERTEX
  8
0
 10
837.051215
 20
915.991228
 42
-0.045390
  0
VERTEX
  8
0
 10
839.614417
 20
911.581255
 42
0.000000
  0
VERTEX
  8
0
 10
841.980462
 20
906.500000
 42
0.000000
  0
VERTEX
  8
0
 10
842.109199
 20
849.500000
 42
0.000654
  0
VERTEX
  8
0
 10
842.205807
 20
822.413749
 42
0.000310
  0
VERTEX
  8
0
 10
842.397623
 20
787.506250
 42
0.000307
  0
VERTEX
  8
0
 10
842.643345
 20
750.994104
 42
0.000435
  0
VERTEX
  8
0
 10
842.910290
 20
718.500000
 42
0.000000
  0
VERTEX
  8
0
 10
843.582644
 20
644.500000
 42
0.000000
  0
VERTEX
  8
0
 10
846.096832
 20
637.943881
 42
0.051047
  0
VERTEX
  8
0
 10
853.844965
 20
622.622257
 42
0.047500
  0
VERTEX
  8
0
 10
864.700849
 20
608.781838
 42
0.043282
  0
VERTEX
  8
0
 10
878.957508
 20
596.170834
 42
0.030638
  0
VERTEX
  8
0
 10
896.881754
 20
584.518008
 42
0.046637
  0
VERTEX
  8
0
 10
937.573615
 20
566.248806
 42
0.025061
  0
VERTEX
  8
0
 10
990.518457
 20
551.100250
 42
0.021993
  0
VERTEX
  8
0
 10
1053.359232
 20
539.367307
 42
0.015703
  0
VERTEX
  8
0
 10
1124.500000
 20
531.567596
 42
0.011915
  0
VERTEX
  8
0
 10
1176.479551
 20
528.759581
 42
0.009850
  0
VERTEX
  8
0
 10
1231.948274
 20
528.180437
 42
0.009878
  0
VERTEX
  8
0
 10
1287.195013
 20
529.783787
 42
0.012245
  0
VERTEX
  8
0
 10
1338.500000
 20
533.548974
 42
0.015179
  0
VERTEX
  8
0
 10
1399.966854
 20
541.466280
 42
0.019987
  0
VERTEX
  8
0
 10
1455.381227
 20
552.608431
 42
0.022404
  0
VERTEX
  8
0
 10
1502.647724
 20
566.363664
 42
0.042294
  0
VERTEX
  8
0
 10
1539.000000
 20
582.273038
 42
0.031113
  0
VERTEX
  8
0
 10
1559.261720
 20
594.955684
 42
0.045646
  0
VERTEX
  8
0
 10
1575.157203
 20
608.693410
 42
0.051344
  0
VERTEX
  8
0
 10
1586.872775
 20
623.656770
 42
0.059445
  0
VERTEX
  8
0
 10
1594.625020
 20
640.000000
 42
0.071365
  0
VERTEX
  8
0
 10
1595.788672
 20
646.334644
 42
0.005471
  0
VERTEX
  8
0
 10
1596.279452
 20
663.708426
 42
0.003094
  0
VERTEX
  8
0
 10
1596.625460
 20
694.846129
 42
0.000251
  0
VERTEX
  8
0
 10
1596.986543
 20
776.500000
 42
-0.000206
  0
VERTEX
  8
0
 10
1597.363111
 20
863.440030
 42
-0.003644
  0
VERTEX
  8
0
 10
1597.701088
 20
891.529984
 42
-0.007975
  0
VERTEX
  8
0
 10
1598.228555
 20
906.478833
 42
-0.095828
  0
VERTEX
  8
0
 10
1599.605656
 20
912.050805
 42
-0.039490
  0
VERTEX
  8
0
 10
1602.159945
 20
916.592684
 42
-0.040171
  0
VERTEX
  8
0
 10
1605.383569
 20
920.648766
 42
-0.040665
  0
VERTEX
  8
0
 10
1609.172980
 20
924.092707
 42
-0.042742
  0
VERTEX
  8
0
 10
1613.409980
 20
926.814222
 42
0.000000
  0
VERTEX
  8
0
 10
1618.500000
 20
929.500000
 42
0.000000
  0
VERTEX
  8
0
 10
2025.750000
 20
929.754834
 42
0.000000
  0
VERTEX
  8
0
 10
2433.000000
 20
930.009667
 42
0.000000
  0
VERTEX
  8
0
 10
2433.000000
 20
1200.004834
 42
0.000000
  0
VERTEX
  8
0
 10
2433.000000
 20
1470.000000
 42
0.000000
  0
VERTEX
  8
0
 10
2032.181501
 20
1470.000000
 42
-0.000103
  0
VERTEX
  8
0
 10
1718.574012
 20
1470.064898
 42
-0.005193
  0
VERTEX
  8
0
 10
1656.880276
 20
1470.731185
 42
-0.023671
  0
VERTEX
  8
0
 10
1627.596304
 20
1472.740808
 42
-0.169440
  0
VERTEX
  8
0
 10
1615.021839
 20
1478.838898
 42
-0.015960
  0
VERTEX
  8
0
 10
1612.039897
 20
1482.029248
 42
-0.040275
  0
VERTEX
  8
0
 10
1610.145160
 20
1484.578213
 42
-0.045631
  0
VERTEX
  8
0
 10
1608.820859
 20
1487.201384
 42
-0.026125
  0
VERTEX
  8
0
 10
1607.690737
 20
1490.565604
 42
-0.009366
  0
VERTEX
  8
0
 10
1607.043517
 20
1493.067831
 42
-0.009620
  0
VERTEX
  8
0
 10
1606.496654
 20
1495.570387
 42
-0.009410
  0
VERTEX
  8
0
 10
1606.105348
 20
1497.756988
 42
-0.039586
  0
VERTEX
  8
0
 10
1606.000000
 20
1499.085506
 42
-0.046236
  0
VERTEX
  8
0
 10
1606.170308
 20
1500.923273
 42
-0.000588
  0
VERTEX
  8
0
 10
1608.332861
 20
1512.416133
 42
-0.001713
  0
VERTEX
  8
0
 10
1610.898003
 20
1525.711520
 42
-0.001122
  0
VERTEX
  8
0
 10
1613.941655
 20
1541.019902
 42
0.003356
  0
VERTEX
  8
0
 10
1620.885710
 20
1576.780320
 42
0.018930
  0
VERTEX
  8
0
 10
1623.737708
 20
1596.011299
 42
0.035918
  0
VERTEX
  8
0
 10
1624.222274
 20
1608.903343
 42
0.056814
  0
VERTEX
  8
0
 10
1622.596001
 20
1619.830647
 42
0.043123
  0
VERTEX
  8
0
 10
1617.631589
 20
1633.539522
 42
0.046929
  0
VERTEX
  8
0
 10
1610.498743
 20
1645.785558
 42
0.042471
  0
VERTEX
  8
0
 10
1600.560053
 20
1657.440023
 42
0.026325
  0
VERTEX
  8
0
 10
1587.113446
 20
1669.405071
 42
-0.002998
  0
VERTEX
  8
0
 10
1578.830605
 20
1676.110223
 42
-0.000090
  0
VERTEX
  8
0
 10
1544.542700
 20
1704.219464
 42
-0.000179
  0
VERTEX
  8
0
 10
1504.171551
 20
1737.352192
 42
-0.000124
  0
VERTEX
  8
0
 10
1458.500000
 20
1774.881353
 42
-0.000300
  0
VERTEX
  8
0
 10
1386.181472
 20
1834.409600
 42
-0.003637
  0
VERTEX
  8
0
 10
1358.595696
 20
1857.483326
 42
-0.004596
  0
VERTEX
  8
0
 10
1342.991961
 20
1870.977666
 42
-0.139373
  0
VERTEX
  8
0
 10
1340.220974
 20
1875.285502
 42
-0.005107
  0
VERTEX
  8
0
 10
1339.460153
 20
1877.887831
 42
-0.000602
  0
VERTEX
  8
0
 10
1337.833715
 20
1883.696366
 42
-0.000721
  0
VERTEX
  8
0
 10
1335.918194
 20
1890.607675
 42
-0.000590
  0
VERTEX
  8
0
 10
1333.890213
 20
1898.000000
 42
0.007105
  0
VERTEX
  8
0
 10
1322.189880
 20
1938.570166
 42
0.019534
  0
VERTEX
  8
0
 10
1312.424757
 20
1966.707031
 42
0.026154
  0
VERTEX
  8
0
 10
1302.417872
 20
1988.793507
 42
0.027329
  0
VERTEX
  8
0
 10
1290.290036
 20
2009.381316
 42
0.034284
  0
VERTEX
  8
0
 10
1278.833702
 20
2024.279485
 42
0.041795
  0
VERTEX
  8
0
 10
1266.125619
 20
2036.435001
 42
0.044383
  0
VERTEX
  8
0
 10
1252.296782
 20
2045.712797
 42
0.049144
  0
VERTEX
  8
0
 10
1237.500000
 20
2052.038866
 42
0.049240
  0
VERTEX
  8
0
 10
1229.093897
 20
2053.807748
 42
0.018337
  0
VERTEX
  8
0
 10
1217.039877
 20
2054.681167
 42
0.018433
  0
VERTEX
  8
0
 10
1204.892576
 20
2054.666585
 42
0.046177
  0
SEQEND
  0
ENDSEC
  0
EOF
