<?xml version="1.0" encoding="UTF-8" standalone="no"?>
<!DOCTYPE svg PUBLIC "-//W3C//DTD SVG 1.1//EN" "http://www.w3.org/Graphics/SVG/1.1/DTD/svg11.dtd">
<svg width="100%" height="100%" viewBox="0 0 2468 2400" version="1.1" xmlns="http://www.w3.org/2000/svg" xmlns:xlink="http://www.w3.org/1999/xlink" xml:space="preserve" xmlns:serif="http://www.serif.com/" style="fill-rule:evenodd;clip-rule:evenodd;stroke-linejoin:round;stroke-miterlimit:2;">
    <g transform="matrix(4.16667,0,0,4.16667,1598.88,1402.46)">
        <g id="Board-Shape" serif:id="Board Shape">
            <path d="M68.655,-113.711C63.255,-113.725 57.963,-115.228 53.362,-118.054C38.661,-127.084 6.04,-147.12 6.04,-147.12C5.59,-151.08 3.57,-156.78 -3.48,-161.69L-61.86,-209.69C-65.19,-219.33 -77.25,-226.08 -92.49,-226.08C-107.73,-226.08 -119.79,-219.33 -123.12,-209.69L-182.4,-160.95L-182.53,-160.85L-184.2,-159.49L-184.72,-159.02C-188.31,-155.67 -190.48,-151.57 -191.01,-147.18L-250.013,-113.733L-375.62,-113.36L-375.62,16.2C-375.62,16.2 -223.297,16.426 -188.585,16.478C-184.726,16.483 -181.599,19.612 -181.595,23.471C-181.579,40.194 -181.54,81.16 -181.54,81.16C-181.54,92.18 -171.11,100.56 -150.53,106.07C-134.5,110.36 -113.36,112.72 -90.99,112.72C-68.63,112.72 -47.48,110.36 -31.45,106.07C-10.88,100.56 -0.45,92.18 -0.45,81.16L-0.45,23.2C-0.45,19.334 2.684,16.2 6.55,16.2L200.08,16.2L200.08,-113.36C200.08,-113.36 98.648,-113.631 68.655,-113.711Z" style="fill-rule:nonzero;"/>
        </g>
    </g>
</svg>
