%TF.GenerationSoftware,KiCad,Pcbnew,(6.0.1)*%
%TF.CreationDate,2022-06-06T15:20:40-07:00*%
%TF.ProjectId,Satellite_PCB,53617465-6c6c-4697-9465-5f5043422e6b,rev?*%
%TF.SameCoordinates,Original*%
%TF.FileFunction,Soldermask,Top*%
%TF.FilePolarity,Negative*%
%FSLAX46Y46*%
G04 Gerber Fmt 4.6, Leading zero omitted, Abs format (unit mm)*
G04 Created by KiCad (PCBNEW (6.0.1)) date 2022-06-06 15:20:40*
%MOMM*%
%LPD*%
G01*
G04 APERTURE LIST*
G04 Aperture macros list*
%AMRoundRect*
0 Rectangle with rounded corners*
0 $1 Rounding radius*
0 $2 $3 $4 $5 $6 $7 $8 $9 X,Y pos of 4 corners*
0 Add a 4 corners polygon primitive as box body*
4,1,4,$2,$3,$4,$5,$6,$7,$8,$9,$2,$3,0*
0 Add four circle primitives for the rounded corners*
1,1,$1+$1,$2,$3*
1,1,$1+$1,$4,$5*
1,1,$1+$1,$6,$7*
1,1,$1+$1,$8,$9*
0 Add four rect primitives between the rounded corners*
20,1,$1+$1,$2,$3,$4,$5,0*
20,1,$1+$1,$4,$5,$6,$7,0*
20,1,$1+$1,$6,$7,$8,$9,0*
20,1,$1+$1,$8,$9,$2,$3,0*%
G04 Aperture macros list end*
%ADD10C,0.150000*%
%ADD11RoundRect,0.250001X0.624999X-0.462499X0.624999X0.462499X-0.624999X0.462499X-0.624999X-0.462499X0*%
%ADD12RoundRect,0.250001X-0.462499X-0.624999X0.462499X-0.624999X0.462499X0.624999X-0.462499X0.624999X0*%
%ADD13C,0.750000*%
G04 APERTURE END LIST*
D10*
X168478200Y-82194400D02*
X173482000Y-82194400D01*
X173482000Y-82194400D02*
X173482000Y-92202000D01*
X173482000Y-92202000D02*
X168478200Y-92202000D01*
X168478200Y-92202000D02*
X168478200Y-82194400D01*
G36*
X168478200Y-82194400D02*
G01*
X173482000Y-82194400D01*
X173482000Y-92202000D01*
X168478200Y-92202000D01*
X168478200Y-82194400D01*
G37*
X190855600Y-82194400D02*
X195859400Y-82194400D01*
X195859400Y-82194400D02*
X195859400Y-92202000D01*
X195859400Y-92202000D02*
X190855600Y-92202000D01*
X190855600Y-92202000D02*
X190855600Y-82194400D01*
G36*
X190855600Y-82194400D02*
G01*
X195859400Y-82194400D01*
X195859400Y-92202000D01*
X190855600Y-92202000D01*
X190855600Y-82194400D01*
G37*
X118287800Y-92811600D02*
X123317000Y-92811600D01*
X123317000Y-92811600D02*
X123317000Y-102768400D01*
X123317000Y-102768400D02*
X118287800Y-102768400D01*
X118287800Y-102768400D02*
X118287800Y-92811600D01*
G36*
X118287800Y-92811600D02*
G01*
X123317000Y-92811600D01*
X123317000Y-102768400D01*
X118287800Y-102768400D01*
X118287800Y-92811600D01*
G37*
X174091600Y-92811600D02*
X179070000Y-92811600D01*
X179070000Y-92811600D02*
X179070000Y-102768400D01*
X179070000Y-102768400D02*
X174091600Y-102768400D01*
X174091600Y-102768400D02*
X174091600Y-92811600D01*
G36*
X174091600Y-92811600D02*
G01*
X179070000Y-92811600D01*
X179070000Y-102768400D01*
X174091600Y-102768400D01*
X174091600Y-92811600D01*
G37*
X185267600Y-92811600D02*
X190246000Y-92811600D01*
X190246000Y-92811600D02*
X190246000Y-102768400D01*
X190246000Y-102768400D02*
X185267600Y-102768400D01*
X185267600Y-102768400D02*
X185267600Y-92811600D01*
G36*
X185267600Y-92811600D02*
G01*
X190246000Y-92811600D01*
X190246000Y-102768400D01*
X185267600Y-102768400D01*
X185267600Y-92811600D01*
G37*
X112699800Y-82194400D02*
X117703600Y-82194400D01*
X117703600Y-82194400D02*
X117703600Y-92202000D01*
X117703600Y-92202000D02*
X112699800Y-92202000D01*
X112699800Y-92202000D02*
X112699800Y-82194400D01*
G36*
X112699800Y-82194400D02*
G01*
X117703600Y-82194400D01*
X117703600Y-92202000D01*
X112699800Y-92202000D01*
X112699800Y-82194400D01*
G37*
X179654200Y-82194400D02*
X184632600Y-82194400D01*
X184632600Y-82194400D02*
X184632600Y-92202000D01*
X184632600Y-92202000D02*
X179654200Y-92202000D01*
X179654200Y-92202000D02*
X179654200Y-82194400D01*
G36*
X179654200Y-82194400D02*
G01*
X184632600Y-82194400D01*
X184632600Y-92202000D01*
X179654200Y-92202000D01*
X179654200Y-82194400D01*
G37*
X107111800Y-92811600D02*
X112090200Y-92811600D01*
X112090200Y-92811600D02*
X112090200Y-102768400D01*
X112090200Y-102768400D02*
X107111800Y-102768400D01*
X107111800Y-102768400D02*
X107111800Y-92811600D01*
G36*
X107111800Y-92811600D02*
G01*
X112090200Y-92811600D01*
X112090200Y-102768400D01*
X107111800Y-102768400D01*
X107111800Y-92811600D01*
G37*
X95935800Y-92811600D02*
X100939600Y-92811600D01*
X100939600Y-92811600D02*
X100939600Y-102768400D01*
X100939600Y-102768400D02*
X95935800Y-102768400D01*
X95935800Y-102768400D02*
X95935800Y-92811600D01*
G36*
X95935800Y-92811600D02*
G01*
X100939600Y-92811600D01*
X100939600Y-102768400D01*
X95935800Y-102768400D01*
X95935800Y-92811600D01*
G37*
X196418200Y-92811600D02*
X202666600Y-92811600D01*
X202666600Y-92811600D02*
X202666600Y-102768400D01*
X202666600Y-102768400D02*
X196418200Y-102768400D01*
X196418200Y-102768400D02*
X196418200Y-92811600D01*
G36*
X196418200Y-92811600D02*
G01*
X202666600Y-92811600D01*
X202666600Y-102768400D01*
X196418200Y-102768400D01*
X196418200Y-92811600D01*
G37*
X101549200Y-82194400D02*
X106553000Y-82194400D01*
X106553000Y-82194400D02*
X106553000Y-92202000D01*
X106553000Y-92202000D02*
X101549200Y-92202000D01*
X101549200Y-92202000D02*
X101549200Y-82194400D01*
G36*
X101549200Y-82194400D02*
G01*
X106553000Y-82194400D01*
X106553000Y-92202000D01*
X101549200Y-92202000D01*
X101549200Y-82194400D01*
G37*
X123875800Y-82194400D02*
X128930400Y-82194400D01*
X128930400Y-82194400D02*
X128930400Y-92202000D01*
X128930400Y-92202000D02*
X123875800Y-92202000D01*
X123875800Y-92202000D02*
X123875800Y-82194400D01*
G36*
X123875800Y-82194400D02*
G01*
X128930400Y-82194400D01*
X128930400Y-92202000D01*
X123875800Y-92202000D01*
X123875800Y-82194400D01*
G37*
%TO.C,G\u002A\u002A\u002A*%
G36*
X149894392Y-70094794D02*
G01*
X150654528Y-70101591D01*
X151483051Y-70120434D01*
X152356571Y-70150293D01*
X153251699Y-70190140D01*
X154145048Y-70238949D01*
X155013229Y-70295689D01*
X155746125Y-70352054D01*
X156900450Y-70460665D01*
X157993560Y-70589194D01*
X159022183Y-70736880D01*
X159983046Y-70902964D01*
X160872879Y-71086685D01*
X161688411Y-71287281D01*
X162426368Y-71503994D01*
X163083479Y-71736063D01*
X163656474Y-71982727D01*
X164142079Y-72243226D01*
X164291543Y-72338029D01*
X164567102Y-72544810D01*
X164818369Y-72777753D01*
X165026324Y-73016912D01*
X165171950Y-73242342D01*
X165190439Y-73280726D01*
X165260080Y-73521403D01*
X165283087Y-73813155D01*
X165259113Y-74126741D01*
X165203593Y-74381587D01*
X165064586Y-74714505D01*
X164839482Y-75061420D01*
X164533100Y-75418235D01*
X164150262Y-75780858D01*
X163695788Y-76145192D01*
X163174497Y-76507144D01*
X162591212Y-76862617D01*
X161950752Y-77207519D01*
X161771673Y-77296816D01*
X160829482Y-77723399D01*
X159809031Y-78118760D01*
X158720082Y-78480759D01*
X157572394Y-78807258D01*
X156375730Y-79096116D01*
X155139849Y-79345196D01*
X153874512Y-79552357D01*
X152589481Y-79715460D01*
X151294515Y-79832366D01*
X149999377Y-79900936D01*
X149871217Y-79905023D01*
X148863096Y-79935219D01*
X148863096Y-70094174D01*
X149894392Y-70094794D01*
G37*
G36*
X148492293Y-79920452D02*
G01*
X147600049Y-79911878D01*
X147301832Y-79908373D01*
X147017395Y-79903866D01*
X146766802Y-79898761D01*
X146570116Y-79893463D01*
X146452877Y-79888702D01*
X145017159Y-79779689D01*
X143599108Y-79619105D01*
X142207533Y-79408927D01*
X140851245Y-79151131D01*
X139539052Y-78847693D01*
X138279765Y-78500588D01*
X137082194Y-78111793D01*
X135955148Y-77683283D01*
X135242345Y-77374250D01*
X134546630Y-77034412D01*
X133908626Y-76678614D01*
X133333610Y-76310931D01*
X132826861Y-75935434D01*
X132393659Y-75556199D01*
X132039281Y-75177297D01*
X131769006Y-74802803D01*
X131664520Y-74613335D01*
X131553657Y-74313341D01*
X131495358Y-73988612D01*
X131492762Y-73670920D01*
X131544956Y-73403955D01*
X131695766Y-73093195D01*
X131936696Y-72794275D01*
X132265848Y-72507801D01*
X132681325Y-72234373D01*
X133181229Y-71974597D01*
X133763664Y-71729074D01*
X134426731Y-71498409D01*
X135168534Y-71283203D01*
X135987176Y-71084061D01*
X136880757Y-70901585D01*
X137847383Y-70736378D01*
X138885154Y-70589044D01*
X139992174Y-70460186D01*
X141145760Y-70352132D01*
X142270097Y-70268461D01*
X143443352Y-70199608D01*
X144632962Y-70146950D01*
X145806359Y-70111863D01*
X146930978Y-70095727D01*
X147229246Y-70094794D01*
X148492293Y-70094174D01*
X148492293Y-79920452D01*
G37*
%TD*%
D11*
%TO.C,D5*%
X182129100Y-99048900D03*
X182129100Y-96073900D03*
%TD*%
%TO.C,D12*%
X187680600Y-88634900D03*
X187680600Y-85659900D03*
%TD*%
%TO.C,D1*%
X98272600Y-88634900D03*
X98272600Y-85659900D03*
%TD*%
%TO.C,D8*%
X104114600Y-99048900D03*
X104114600Y-96073900D03*
%TD*%
%TO.C,D6*%
X193268600Y-99048900D03*
X193268600Y-96073900D03*
%TD*%
%TO.C,D11*%
X199364600Y-88634900D03*
X199364600Y-85659900D03*
%TD*%
%TO.C,D2*%
X109702600Y-88634900D03*
X109702600Y-85659900D03*
%TD*%
%TO.C,D4*%
X170916600Y-99048900D03*
X170916600Y-96073900D03*
%TD*%
%TO.C,D10*%
X126466600Y-99048900D03*
X126466600Y-96073900D03*
%TD*%
%TO.C,D13*%
X176504600Y-88380900D03*
X176504600Y-85405900D03*
%TD*%
%TO.C,D9*%
X115254100Y-99048900D03*
X115254100Y-96073900D03*
%TD*%
D12*
%TO.C,D7*%
X146823100Y-62255400D03*
X149798100Y-62255400D03*
%TD*%
D11*
%TO.C,D3*%
X120878600Y-88380900D03*
X120878600Y-85405900D03*
%TD*%
D13*
%TO.C,SW1*%
X139870643Y-66896961D03*
X137539205Y-68784922D03*
%TD*%
%TO.C,SW2*%
X158827995Y-68530922D03*
X156496557Y-66642961D03*
%TD*%
M02*
