%TF.GenerationSoftware,KiCad,Pcbnew,(6.0.1)*%
%TF.CreationDate,2022-05-20T13:53:27-07:00*%
%TF.ProjectId,Satellite_PCB,53617465-6c6c-4697-9465-5f5043422e6b,rev?*%
%TF.SameCoordinates,Original*%
%TF.FileFunction,Profile,NP*%
%FSLAX46Y46*%
G04 Gerber Fmt 4.6, Leading zero omitted, Abs format (unit mm)*
G04 Created by KiCad (PCBNEW (6.0.1)) date 2022-05-20 13:53:27*
%MOMM*%
%LPD*%
G01*
G04 APERTURE LIST*
%TA.AperFunction,Profile*%
%ADD10C,0.192925*%
%TD*%
G04 APERTURE END LIST*
D10*
X167823348Y-79878339D02*
X167747265Y-79876196D01*
X167747265Y-79876196D02*
X167671846Y-79869820D01*
X167671846Y-79869820D02*
X167597250Y-79859286D01*
X167597250Y-79859286D02*
X167523632Y-79844667D01*
X167523632Y-79844667D02*
X167451152Y-79826040D01*
X167451152Y-79826040D02*
X167379967Y-79803480D01*
X167379967Y-79803480D02*
X167310234Y-79777061D01*
X167310234Y-79777061D02*
X167242112Y-79746860D01*
X167242112Y-79746860D02*
X167175757Y-79712951D01*
X167175757Y-79712951D02*
X167111329Y-79675409D01*
X167111329Y-79675409D02*
X167048983Y-79634310D01*
X167048983Y-79634310D02*
X166988878Y-79589728D01*
X166988878Y-79589728D02*
X166931172Y-79541740D01*
X166931172Y-79541740D02*
X166876022Y-79490419D01*
X166876022Y-79490419D02*
X166823586Y-79435842D01*
X166823586Y-79435842D02*
X166774021Y-79378083D01*
X166774021Y-79378083D02*
X166727787Y-79317593D01*
X166727787Y-79317593D02*
X166685262Y-79254957D01*
X166685262Y-79254957D02*
X166646485Y-79190346D01*
X166646485Y-79190346D02*
X166611498Y-79123928D01*
X166611498Y-79123928D02*
X166580342Y-79055873D01*
X166580342Y-79055873D02*
X166553059Y-78986351D01*
X166553059Y-78986351D02*
X166529688Y-78915531D01*
X166529688Y-78915531D02*
X166510271Y-78843583D01*
X166510271Y-78843583D02*
X166494849Y-78770677D01*
X166494849Y-78770677D02*
X166483462Y-78696981D01*
X166483462Y-78696981D02*
X166476153Y-78622666D01*
X166476153Y-78622666D02*
X166472961Y-78547901D01*
X166472961Y-78547901D02*
X166473928Y-78472856D01*
X166473928Y-78472856D02*
X166479095Y-78397700D01*
X166479095Y-78397700D02*
X166488502Y-78322603D01*
X166488502Y-78322603D02*
X166502191Y-78247734D01*
X166502191Y-78247734D02*
X166816419Y-76728349D01*
X166816419Y-76728349D02*
X166991511Y-75855343D01*
X166991511Y-75855343D02*
X167172028Y-74931730D01*
X167172028Y-74931730D02*
X167254988Y-74428195D01*
X167254988Y-74428195D02*
X167279165Y-74237983D01*
X167279165Y-74237983D02*
X167299361Y-74049579D01*
X167299361Y-74049579D02*
X167307854Y-73956168D01*
X167307854Y-73956168D02*
X167315216Y-73863345D01*
X167315216Y-73863345D02*
X167321403Y-73771155D01*
X167321403Y-73771155D02*
X167326370Y-73679644D01*
X167326370Y-73679644D02*
X167328298Y-73629484D01*
X167328298Y-73629484D02*
X167328298Y-73473215D01*
X167328298Y-73473215D02*
X167316720Y-73365177D01*
X167316720Y-73365177D02*
X167296729Y-73218115D01*
X167296729Y-73218115D02*
X167268662Y-73063900D01*
X167268662Y-73063900D02*
X167231540Y-72903247D01*
X167231540Y-72903247D02*
X167184385Y-72736872D01*
X167184385Y-72736872D02*
X167126221Y-72565489D01*
X167126221Y-72565489D02*
X167056068Y-72389813D01*
X167056068Y-72389813D02*
X166972949Y-72210559D01*
X166972949Y-72210559D02*
X166875887Y-72028443D01*
X166875887Y-72028443D02*
X166763903Y-71844179D01*
X166763903Y-71844179D02*
X166636019Y-71658482D01*
X166636019Y-71658482D02*
X166491259Y-71472067D01*
X166491259Y-71472067D02*
X166328643Y-71285649D01*
X166328643Y-71285649D02*
X166147195Y-71099944D01*
X166147195Y-71099944D02*
X166049103Y-71007582D01*
X166049103Y-71007582D02*
X165945936Y-70915666D01*
X165945936Y-70915666D02*
X165837572Y-70824285D01*
X165837572Y-70824285D02*
X165723888Y-70733530D01*
X165723888Y-70733530D02*
X165604763Y-70643488D01*
X165604763Y-70643488D02*
X165480074Y-70554251D01*
X165480074Y-70554251D02*
X154217082Y-61293828D01*
X154217082Y-61293828D02*
X154151952Y-61121128D01*
X154151952Y-61121128D02*
X154077149Y-60951831D01*
X154077149Y-60951831D02*
X153992870Y-60786073D01*
X153992870Y-60786073D02*
X153899310Y-60623992D01*
X153899310Y-60623992D02*
X153796666Y-60465723D01*
X153796666Y-60465723D02*
X153685133Y-60311402D01*
X153685133Y-60311402D02*
X153564909Y-60161167D01*
X153564909Y-60161167D02*
X153436188Y-60015153D01*
X153436188Y-60015153D02*
X153299167Y-59873497D01*
X153299167Y-59873497D02*
X153154042Y-59736335D01*
X153154042Y-59736335D02*
X153001008Y-59603804D01*
X153001008Y-59603804D02*
X152840263Y-59476039D01*
X152840263Y-59476039D02*
X152672002Y-59353178D01*
X152672002Y-59353178D02*
X152496421Y-59235356D01*
X152496421Y-59235356D02*
X152313717Y-59122710D01*
X152313717Y-59122710D02*
X152124084Y-59015377D01*
X152124084Y-59015377D02*
X151927720Y-58913492D01*
X151927720Y-58913492D02*
X151724821Y-58817192D01*
X151724821Y-58817192D02*
X151515581Y-58726613D01*
X151515581Y-58726613D02*
X151300199Y-58641893D01*
X151300199Y-58641893D02*
X151078868Y-58563166D01*
X151078868Y-58563166D02*
X150851787Y-58490570D01*
X150851787Y-58490570D02*
X150619150Y-58424240D01*
X150619150Y-58424240D02*
X150381154Y-58364314D01*
X150381154Y-58364314D02*
X150137994Y-58310927D01*
X150137994Y-58310927D02*
X149889868Y-58264216D01*
X149889868Y-58264216D02*
X149636970Y-58224317D01*
X149636970Y-58224317D02*
X149379497Y-58191367D01*
X149379497Y-58191367D02*
X149117646Y-58165501D01*
X149117646Y-58165501D02*
X148851611Y-58146857D01*
X148851611Y-58146857D02*
X148581590Y-58135571D01*
X148581590Y-58135571D02*
X148307777Y-58131778D01*
X148307777Y-58131778D02*
X147763944Y-58146857D01*
X147763944Y-58146857D02*
X147236057Y-58191367D01*
X147236057Y-58191367D02*
X146725687Y-58264216D01*
X146725687Y-58264216D02*
X146234401Y-58364314D01*
X146234401Y-58364314D02*
X145763768Y-58490570D01*
X145763768Y-58490570D02*
X145315356Y-58641893D01*
X145315356Y-58641893D02*
X144890733Y-58817192D01*
X144890733Y-58817192D02*
X144491469Y-59015377D01*
X144491469Y-59015377D02*
X144119131Y-59235356D01*
X144119131Y-59235356D02*
X143775289Y-59476039D01*
X143775289Y-59476039D02*
X143461510Y-59736335D01*
X143461510Y-59736335D02*
X143179363Y-60015153D01*
X143179363Y-60015153D02*
X142930416Y-60311402D01*
X142930416Y-60311402D02*
X142716238Y-60623992D01*
X142716238Y-60623992D02*
X142538397Y-60951831D01*
X142538397Y-60951831D02*
X142398462Y-61293828D01*
X142398462Y-61293828D02*
X130961848Y-70697016D01*
X130961848Y-70697016D02*
X130936766Y-70716308D01*
X130936766Y-70716308D02*
X130614582Y-70978686D01*
X130614582Y-70978686D02*
X130514259Y-71069361D01*
X130514259Y-71069361D02*
X130387617Y-71192217D01*
X130387617Y-71192217D02*
X130267458Y-71318333D01*
X130267458Y-71318333D02*
X130153844Y-71447581D01*
X130153844Y-71447581D02*
X130046837Y-71579831D01*
X130046837Y-71579831D02*
X129946500Y-71714951D01*
X129946500Y-71714951D02*
X129852894Y-71852813D01*
X129852894Y-71852813D02*
X129766083Y-71993286D01*
X129766083Y-71993286D02*
X129686127Y-72136240D01*
X129686127Y-72136240D02*
X129613090Y-72281545D01*
X129613090Y-72281545D02*
X129547033Y-72429072D01*
X129547033Y-72429072D02*
X129488018Y-72578691D01*
X129488018Y-72578691D02*
X129436108Y-72730270D01*
X129436108Y-72730270D02*
X129391365Y-72883681D01*
X129391365Y-72883681D02*
X129353851Y-73038793D01*
X129353851Y-73038793D02*
X129323627Y-73195477D01*
X129323627Y-73195477D02*
X129300758Y-73353602D01*
X129300758Y-73353602D02*
X129287251Y-73469353D01*
X129287251Y-73469353D02*
X129287251Y-73633341D01*
X129287251Y-73633341D02*
X129289182Y-73681573D01*
X129289182Y-73681573D02*
X129294152Y-73771186D01*
X129294152Y-73771186D02*
X129300365Y-73862019D01*
X129300365Y-73862019D02*
X129307800Y-73954028D01*
X129307800Y-73954028D02*
X129316432Y-74047167D01*
X129316432Y-74047167D02*
X129326240Y-74141391D01*
X129326240Y-74141391D02*
X129337201Y-74236655D01*
X129337201Y-74236655D02*
X129362492Y-74430122D01*
X129362492Y-74430122D02*
X129514907Y-75242342D01*
X129514907Y-75242342D02*
X129610932Y-75638882D01*
X129610932Y-75638882D02*
X129711358Y-76025624D01*
X129711358Y-76025624D02*
X129815120Y-76401306D01*
X129815120Y-76401306D02*
X129921157Y-76764667D01*
X129921157Y-76764667D02*
X130028406Y-77114444D01*
X130028406Y-77114444D02*
X130135805Y-77449377D01*
X130135805Y-77449377D02*
X130346800Y-78069663D01*
X130346800Y-78069663D02*
X130372337Y-78147585D01*
X130372337Y-78147585D02*
X130392969Y-78226387D01*
X130392969Y-78226387D02*
X130408724Y-78305852D01*
X130408724Y-78305852D02*
X130419633Y-78385765D01*
X130419633Y-78385765D02*
X130425722Y-78465911D01*
X130425722Y-78465911D02*
X130427020Y-78546075D01*
X130427020Y-78546075D02*
X130423557Y-78626041D01*
X130423557Y-78626041D02*
X130415361Y-78705594D01*
X130415361Y-78705594D02*
X130402459Y-78784518D01*
X130402459Y-78784518D02*
X130384881Y-78862598D01*
X130384881Y-78862598D02*
X130362656Y-78939620D01*
X130362656Y-78939620D02*
X130335811Y-79015366D01*
X130335811Y-79015366D02*
X130304376Y-79089623D01*
X130304376Y-79089623D02*
X130268379Y-79162174D01*
X130268379Y-79162174D02*
X130227848Y-79232805D01*
X130227848Y-79232805D02*
X130182812Y-79301300D01*
X130182812Y-79301300D02*
X130133701Y-79366970D01*
X130133701Y-79366970D02*
X130081051Y-79429130D01*
X130081051Y-79429130D02*
X130025057Y-79487680D01*
X130025057Y-79487680D02*
X129965910Y-79542520D01*
X129965910Y-79542520D02*
X129903804Y-79593549D01*
X129903804Y-79593549D02*
X129838932Y-79640667D01*
X129838932Y-79640667D02*
X129771485Y-79683774D01*
X129771485Y-79683774D02*
X129701657Y-79722770D01*
X129701657Y-79722770D02*
X129629640Y-79757553D01*
X129629640Y-79757553D02*
X129555628Y-79788024D01*
X129555628Y-79788024D02*
X129479813Y-79814083D01*
X129479813Y-79814083D02*
X129402387Y-79835628D01*
X129402387Y-79835628D02*
X129323544Y-79852561D01*
X129323544Y-79852561D02*
X129243477Y-79864779D01*
X129243477Y-79864779D02*
X129162377Y-79872184D01*
X129162377Y-79872184D02*
X129080437Y-79874675D01*
X129080437Y-79874675D02*
X93684787Y-79878339D01*
X93684787Y-79878339D02*
X93684787Y-104873765D01*
X93684787Y-104873765D02*
X129768600Y-104927400D01*
X129768600Y-104927400D02*
X129837969Y-104929242D01*
X129837969Y-104929242D02*
X129906426Y-104934531D01*
X129906426Y-104934531D02*
X129973887Y-104943182D01*
X129973887Y-104943182D02*
X130040267Y-104955111D01*
X130040267Y-104955111D02*
X130105482Y-104970233D01*
X130105482Y-104970233D02*
X130169446Y-104988463D01*
X130169446Y-104988463D02*
X130232077Y-105009718D01*
X130232077Y-105009718D02*
X130293289Y-105033912D01*
X130293289Y-105033912D02*
X130352997Y-105060961D01*
X130352997Y-105060961D02*
X130411118Y-105090780D01*
X130411118Y-105090780D02*
X130467567Y-105123285D01*
X130467567Y-105123285D02*
X130522260Y-105158392D01*
X130522260Y-105158392D02*
X130575111Y-105196015D01*
X130575111Y-105196015D02*
X130626037Y-105236069D01*
X130626037Y-105236069D02*
X130674953Y-105278472D01*
X130674953Y-105278472D02*
X130721774Y-105323137D01*
X130721774Y-105323137D02*
X130766417Y-105369981D01*
X130766417Y-105369981D02*
X130808796Y-105418918D01*
X130808796Y-105418918D02*
X130848827Y-105469865D01*
X130848827Y-105469865D02*
X130886426Y-105522736D01*
X130886426Y-105522736D02*
X130921508Y-105577447D01*
X130921508Y-105577447D02*
X130953990Y-105633914D01*
X130953990Y-105633914D02*
X130983785Y-105692052D01*
X130983785Y-105692052D02*
X131010810Y-105751775D01*
X131010810Y-105751775D02*
X131034981Y-105813001D01*
X131034981Y-105813001D02*
X131056213Y-105875644D01*
X131056213Y-105875644D02*
X131074421Y-105939620D01*
X131074421Y-105939620D02*
X131089521Y-106004843D01*
X131089521Y-106004843D02*
X131101428Y-106071230D01*
X131101428Y-106071230D02*
X131110059Y-106138696D01*
X131110059Y-106138696D02*
X131115328Y-106207156D01*
X131115328Y-106207156D02*
X131117152Y-106276526D01*
X131117152Y-106276526D02*
X131127763Y-117406201D01*
X131127763Y-117406201D02*
X131133657Y-117604024D01*
X131133657Y-117604024D02*
X131151331Y-117798855D01*
X131151331Y-117798855D02*
X131180775Y-117990684D01*
X131180775Y-117990684D02*
X131221980Y-118179506D01*
X131221980Y-118179506D02*
X131274936Y-118365310D01*
X131274936Y-118365310D02*
X131339633Y-118548089D01*
X131339633Y-118548089D02*
X131416060Y-118727836D01*
X131416060Y-118727836D02*
X131504209Y-118904541D01*
X131504209Y-118904541D02*
X131604069Y-119078197D01*
X131604069Y-119078197D02*
X131715630Y-119248795D01*
X131715630Y-119248795D02*
X131838883Y-119416328D01*
X131838883Y-119416328D02*
X131973817Y-119580787D01*
X131973817Y-119580787D02*
X132120422Y-119742164D01*
X132120422Y-119742164D02*
X132278690Y-119900452D01*
X132278690Y-119900452D02*
X132448609Y-120055641D01*
X132448609Y-120055641D02*
X132630170Y-120207724D01*
X132630170Y-120207724D02*
X132823363Y-120356693D01*
X132823363Y-120356693D02*
X133028178Y-120502539D01*
X133028178Y-120502539D02*
X133244606Y-120645255D01*
X133244606Y-120645255D02*
X133472636Y-120784832D01*
X133472636Y-120784832D02*
X133712258Y-120921262D01*
X133712258Y-120921262D02*
X133963464Y-121054537D01*
X133963464Y-121054537D02*
X134226241Y-121184649D01*
X134226241Y-121184649D02*
X134500582Y-121311590D01*
X134500582Y-121311590D02*
X135083912Y-121555926D01*
X135083912Y-121555926D02*
X135713375Y-121787479D01*
X135713375Y-121787479D02*
X136388891Y-122006184D01*
X136388891Y-122006184D02*
X137110381Y-122211978D01*
X137110381Y-122211978D02*
X138314854Y-122504731D01*
X138314854Y-122504731D02*
X139602979Y-122761605D01*
X139602979Y-122761605D02*
X140965982Y-122981627D01*
X140965982Y-122981627D02*
X142395093Y-123163825D01*
X142395093Y-123163825D02*
X143881539Y-123307226D01*
X143881539Y-123307226D02*
X145416548Y-123410860D01*
X145416548Y-123410860D02*
X146991348Y-123473753D01*
X146991348Y-123473753D02*
X148597167Y-123494934D01*
X148597167Y-123494934D02*
X150202431Y-123473753D01*
X150202431Y-123473753D02*
X151776970Y-123410860D01*
X151776970Y-123410860D02*
X153311944Y-123307226D01*
X153311944Y-123307226D02*
X154798514Y-123163825D01*
X154798514Y-123163825D02*
X156227839Y-122981627D01*
X156227839Y-122981627D02*
X157591080Y-122761605D01*
X157591080Y-122761605D02*
X158879397Y-122504731D01*
X158879397Y-122504731D02*
X160083951Y-122211978D01*
X160083951Y-122211978D02*
X160805101Y-122006184D01*
X160805101Y-122006184D02*
X161480320Y-121787479D01*
X161480320Y-121787479D02*
X162109525Y-121555926D01*
X162109525Y-121555926D02*
X162692634Y-121311590D01*
X162692634Y-121311590D02*
X163229565Y-121054537D01*
X163229565Y-121054537D02*
X163720236Y-120784832D01*
X163720236Y-120784832D02*
X164164566Y-120502539D01*
X164164566Y-120502539D02*
X164562473Y-120207724D01*
X164562473Y-120207724D02*
X164913873Y-119900452D01*
X164913873Y-119900452D02*
X165218686Y-119580787D01*
X165218686Y-119580787D02*
X165476830Y-119248795D01*
X165476830Y-119248795D02*
X165688222Y-118904541D01*
X165688222Y-118904541D02*
X165852781Y-118548089D01*
X165852781Y-118548089D02*
X165917472Y-118365310D01*
X165917472Y-118365310D02*
X165970425Y-118179506D01*
X165970425Y-118179506D02*
X166011627Y-117990684D01*
X166011627Y-117990684D02*
X166041071Y-117798855D01*
X166041071Y-117798855D02*
X166064638Y-117406201D01*
X166064638Y-117406201D02*
X166064638Y-106224242D01*
X166064638Y-106224242D02*
X166066395Y-106154746D01*
X166066395Y-106154746D02*
X166071610Y-106086163D01*
X166071610Y-106086163D02*
X166080198Y-106018577D01*
X166080198Y-106018577D02*
X166092075Y-105952073D01*
X166092075Y-105952073D02*
X166107154Y-105886736D01*
X166107154Y-105886736D02*
X166125352Y-105822651D01*
X166125352Y-105822651D02*
X166146584Y-105759902D01*
X166146584Y-105759902D02*
X166170765Y-105698575D01*
X166170765Y-105698575D02*
X166197809Y-105638754D01*
X166197809Y-105638754D02*
X166227633Y-105580524D01*
X166227633Y-105580524D02*
X166260151Y-105523970D01*
X166260151Y-105523970D02*
X166295278Y-105469177D01*
X166295278Y-105469177D02*
X166332930Y-105416230D01*
X166332930Y-105416230D02*
X166373021Y-105365213D01*
X166373021Y-105365213D02*
X166415467Y-105316211D01*
X166415467Y-105316211D02*
X166460184Y-105269310D01*
X166460184Y-105269310D02*
X166507085Y-105224594D01*
X166507085Y-105224594D02*
X166556086Y-105182148D01*
X166556086Y-105182148D02*
X166607103Y-105142057D01*
X166607103Y-105142057D02*
X166660051Y-105104405D01*
X166660051Y-105104405D02*
X166714844Y-105069278D01*
X166714844Y-105069278D02*
X166771398Y-105036760D01*
X166771398Y-105036760D02*
X166829629Y-105006937D01*
X166829629Y-105006937D02*
X166889450Y-104979892D01*
X166889450Y-104979892D02*
X166950777Y-104955712D01*
X166950777Y-104955712D02*
X167013527Y-104934480D01*
X167013527Y-104934480D02*
X167077612Y-104916282D01*
X167077612Y-104916282D02*
X167142950Y-104901202D01*
X167142950Y-104901202D02*
X167209454Y-104889326D01*
X167209454Y-104889326D02*
X167277040Y-104880737D01*
X167277040Y-104880737D02*
X167345624Y-104875522D01*
X167345624Y-104875522D02*
X167415120Y-104873765D01*
X167415120Y-104873765D02*
X204751985Y-104873765D01*
X204751985Y-104873765D02*
X204751985Y-79878339D01*
X204751985Y-79878339D02*
X167823348Y-79878339D01*
X167823348Y-79878339D02*
X167823348Y-79878339D01*
M02*
