%TF.GenerationSoftware,KiCad,Pcbnew,(6.0.1)*%
%TF.CreationDate,2022-06-06T15:20:40-07:00*%
%TF.ProjectId,Satellite_PCB,53617465-6c6c-4697-9465-5f5043422e6b,rev?*%
%TF.SameCoordinates,Original*%
%TF.FileFunction,Profile,NP*%
%FSLAX46Y46*%
G04 Gerber Fmt 4.6, Leading zero omitted, Abs format (unit mm)*
G04 Created by KiCad (PCBNEW (6.0.1)) date 2022-06-06 15:20:40*
%MOMM*%
%LPD*%
G01*
G04 APERTURE LIST*
%TA.AperFunction,Profile*%
%ADD10C,0.011025*%
%TD*%
%ADD11C,0.011025*%
%TA.AperFunction,Profile*%
%ADD12C,0.100000*%
%TD*%
G04 APERTURE END LIST*
D10*
X147755329Y-52915789D02*
X147755329Y-52915789D01*
D11*
X150357520Y-53559069D02*
X150286726Y-53512166D01*
X150214982Y-53466925D01*
X150142314Y-53423353D01*
X150068749Y-53381456D01*
X149994314Y-53341240D01*
X149919038Y-53302714D01*
X149842946Y-53265882D01*
X149766067Y-53230753D01*
X149688426Y-53197332D01*
X149610053Y-53165627D01*
X149530973Y-53135644D01*
X149451214Y-53107390D01*
X149370804Y-53080872D01*
X149289768Y-53056097D01*
X149208135Y-53033071D01*
X149125933Y-53011800D01*
X149043186Y-52992293D01*
X148959925Y-52974555D01*
X148876174Y-52958593D01*
X148791962Y-52944414D01*
X148707316Y-52932025D01*
X148622263Y-52921432D01*
X148536830Y-52912642D01*
X148451044Y-52905662D01*
X148364933Y-52900499D01*
X148278524Y-52897159D01*
X148191843Y-52895649D01*
X148104919Y-52895977D01*
X148017779Y-52898147D01*
X147930448Y-52902168D01*
X147842956Y-52908047D01*
X147755329Y-52915789D01*
X151510198Y-54702945D02*
X151482998Y-54666482D01*
X151454362Y-54629209D01*
X151424378Y-54591212D01*
X151393132Y-54552576D01*
X151360710Y-54513388D01*
X151327199Y-54473732D01*
X151292686Y-54433694D01*
X151257257Y-54393360D01*
X151221000Y-54352816D01*
X151184000Y-54312146D01*
X151146344Y-54271438D01*
X151108119Y-54230775D01*
X151069412Y-54190244D01*
X151030308Y-54149931D01*
X150990896Y-54109921D01*
X150951261Y-54070299D01*
X150911490Y-54031152D01*
X150871669Y-53992565D01*
X150831886Y-53954623D01*
X150792227Y-53917412D01*
X150752779Y-53881018D01*
X150713627Y-53845526D01*
X150674860Y-53811022D01*
X150636563Y-53777592D01*
X150598823Y-53745321D01*
X150561727Y-53714294D01*
X150525361Y-53684598D01*
X150489812Y-53656318D01*
X150455167Y-53629539D01*
X150421512Y-53604348D01*
X150388934Y-53580829D01*
X150357520Y-53559069D01*
X153700605Y-59990806D02*
X153631646Y-59738663D01*
X153563629Y-59494303D01*
X153496461Y-59257509D01*
X153430052Y-59028063D01*
X153364312Y-58805748D01*
X153299149Y-58590344D01*
X153234473Y-58381636D01*
X153170192Y-58179404D01*
X153106217Y-57983432D01*
X153042456Y-57793502D01*
X152978819Y-57609395D01*
X152915214Y-57430895D01*
X152851551Y-57257783D01*
X152787740Y-57089843D01*
X152723689Y-56926855D01*
X152659308Y-56768603D01*
X152594505Y-56614868D01*
X152529191Y-56465434D01*
X152463274Y-56320082D01*
X152396663Y-56178595D01*
X152329268Y-56040754D01*
X152260998Y-55906343D01*
X152191762Y-55775143D01*
X152121470Y-55646938D01*
X152050030Y-55521508D01*
X151977352Y-55398637D01*
X151903345Y-55278106D01*
X151827918Y-55159699D01*
X151750981Y-55043196D01*
X151672442Y-54928382D01*
X151592211Y-54815037D01*
X151510198Y-54702945D01*
X154015578Y-61129615D02*
X154010959Y-61114242D01*
X154005817Y-61096828D01*
X154000170Y-61077445D01*
X153994036Y-61056167D01*
X153987435Y-61033069D01*
X153980385Y-61008224D01*
X153972905Y-60981706D01*
X153965013Y-60953588D01*
X153956728Y-60923945D01*
X153948068Y-60892850D01*
X153939053Y-60860377D01*
X153929701Y-60826600D01*
X153920030Y-60791593D01*
X153910060Y-60755428D01*
X153899809Y-60718181D01*
X153889295Y-60679925D01*
X153878537Y-60640734D01*
X153867554Y-60600681D01*
X153856365Y-60559840D01*
X153844988Y-60518286D01*
X153833442Y-60476091D01*
X153821745Y-60433330D01*
X153809917Y-60390076D01*
X153797975Y-60346404D01*
X153785939Y-60302387D01*
X153773826Y-60258098D01*
X153761657Y-60213613D01*
X153749449Y-60169003D01*
X153737221Y-60124344D01*
X153724992Y-60079709D01*
X153712780Y-60035171D01*
X153700605Y-59990806D01*
D10*
X154098788Y-61416851D02*
X154015578Y-61129615D01*
X159724291Y-66037696D02*
X154098788Y-61416851D01*
D11*
X165627962Y-70880967D02*
X165606359Y-70863718D01*
X165570457Y-70834732D01*
X165520634Y-70794316D01*
X165457270Y-70742779D01*
X165380745Y-70680429D01*
X165291436Y-70607576D01*
X165189722Y-70524528D01*
X165075984Y-70431594D01*
X164950600Y-70329082D01*
X164813949Y-70217301D01*
X164666410Y-70096559D01*
X164508362Y-69967165D01*
X164340185Y-69829428D01*
X164162256Y-69683657D01*
X163974956Y-69530160D01*
X163778664Y-69369245D01*
X163573758Y-69201221D01*
X163360617Y-69026398D01*
X163139621Y-68845083D01*
X162911148Y-68657585D01*
X162675578Y-68464213D01*
X162433290Y-68265276D01*
X162184662Y-68061081D01*
X161930075Y-67851939D01*
X161669906Y-67638156D01*
X161404535Y-67420043D01*
X161134340Y-67197907D01*
X160859702Y-66972058D01*
X160580999Y-66742803D01*
X160298610Y-66510452D01*
X160012914Y-66275314D01*
X159724291Y-66037696D01*
X167178823Y-73357810D02*
X167161751Y-73267041D01*
X167142595Y-73177015D01*
X167121359Y-73087745D01*
X167098051Y-72999242D01*
X167072675Y-72911518D01*
X167045239Y-72824584D01*
X167015747Y-72738454D01*
X166984206Y-72653138D01*
X166950622Y-72568649D01*
X166915001Y-72484999D01*
X166877348Y-72402199D01*
X166837670Y-72320261D01*
X166795973Y-72239198D01*
X166752262Y-72159021D01*
X166706544Y-72079742D01*
X166658824Y-72001374D01*
X166609109Y-71923927D01*
X166557404Y-71847414D01*
X166503715Y-71771847D01*
X166448049Y-71697238D01*
X166390411Y-71623598D01*
X166330807Y-71550940D01*
X166269243Y-71479275D01*
X166205726Y-71408616D01*
X166140260Y-71338974D01*
X166072853Y-71270361D01*
X166003510Y-71202790D01*
X165932236Y-71136271D01*
X165859039Y-71070818D01*
X165783923Y-71006441D01*
X165706895Y-70943154D01*
X165627962Y-70880967D01*
X166734501Y-76631553D02*
X166774716Y-76427468D01*
X166812877Y-76232638D01*
X166849017Y-76046793D01*
X166883174Y-75869666D01*
X166915383Y-75700986D01*
X166945679Y-75540485D01*
X166974098Y-75387894D01*
X167000675Y-75242945D01*
X167025447Y-75105369D01*
X167048449Y-74974897D01*
X167069717Y-74851260D01*
X167089285Y-74734190D01*
X167107191Y-74623417D01*
X167123469Y-74518674D01*
X167138156Y-74419690D01*
X167151286Y-74326197D01*
X167162895Y-74237927D01*
X167173020Y-74154611D01*
X167181696Y-74075980D01*
X167188958Y-74001765D01*
X167194842Y-73931697D01*
X167199384Y-73865508D01*
X167202620Y-73802929D01*
X167204584Y-73743691D01*
X167205313Y-73687525D01*
X167204842Y-73634163D01*
X167203208Y-73583335D01*
X167200445Y-73534773D01*
X167196589Y-73488209D01*
X167191677Y-73443372D01*
X167185742Y-73399996D01*
X167178823Y-73357810D01*
X166368855Y-78807825D02*
X166366998Y-78793600D01*
X166365838Y-78776914D01*
X166365391Y-78757665D01*
X166365674Y-78735753D01*
X166366702Y-78711076D01*
X166368492Y-78683534D01*
X166371058Y-78653026D01*
X166374418Y-78619451D01*
X166378586Y-78582708D01*
X166383580Y-78542698D01*
X166389414Y-78499317D01*
X166396106Y-78452467D01*
X166403671Y-78402047D01*
X166412124Y-78347954D01*
X166421483Y-78290090D01*
X166431762Y-78228352D01*
X166442978Y-78162640D01*
X166455147Y-78092854D01*
X166468285Y-78018892D01*
X166482408Y-77940654D01*
X166497531Y-77858038D01*
X166513671Y-77770945D01*
X166530843Y-77679273D01*
X166549065Y-77582921D01*
X166568350Y-77481790D01*
X166588717Y-77375777D01*
X166610180Y-77264782D01*
X166632755Y-77148705D01*
X166656459Y-77027444D01*
X166681307Y-76900899D01*
X166707316Y-76768969D01*
X166734501Y-76631553D01*
X167146819Y-79858623D02*
X167109354Y-79841073D01*
X167072533Y-79822247D01*
X167036377Y-79802175D01*
X167000906Y-79780884D01*
X166966140Y-79758405D01*
X166932100Y-79734765D01*
X166898806Y-79709994D01*
X166866279Y-79684122D01*
X166834539Y-79657176D01*
X166803607Y-79629185D01*
X166773503Y-79600180D01*
X166744248Y-79570188D01*
X166715861Y-79539239D01*
X166688365Y-79507361D01*
X166661778Y-79474584D01*
X166636121Y-79440937D01*
X166611416Y-79406448D01*
X166587682Y-79371147D01*
X166564939Y-79335061D01*
X166543209Y-79298222D01*
X166522512Y-79260656D01*
X166502868Y-79222394D01*
X166484297Y-79183464D01*
X166466821Y-79143896D01*
X166450459Y-79103717D01*
X166435233Y-79062958D01*
X166421161Y-79021646D01*
X166408266Y-78979812D01*
X166396568Y-78937484D01*
X166386086Y-78894690D01*
X166376841Y-78851461D01*
X166368855Y-78807825D01*
D10*
X167387382Y-79969837D02*
X167146819Y-79858623D01*
X186014510Y-79983972D02*
X167387382Y-79969837D01*
X204637371Y-79993306D02*
X186014510Y-79983972D01*
X204637371Y-104996431D02*
X204637371Y-79993306D01*
X185894229Y-104996431D02*
X204637371Y-104996431D01*
D11*
X166493671Y-105274066D02*
X166527136Y-105246777D01*
X166553181Y-105221327D01*
X166576244Y-105197651D01*
X166600761Y-105175686D01*
X166631171Y-105155368D01*
X166671911Y-105136633D01*
X166727418Y-105119417D01*
X166802130Y-105103657D01*
X166900484Y-105089289D01*
X167026918Y-105076249D01*
X167185870Y-105064474D01*
X167381777Y-105053899D01*
X167619076Y-105044461D01*
X167902205Y-105036097D01*
X168235601Y-105028743D01*
X168623703Y-105022334D01*
X169070947Y-105016807D01*
X169581771Y-105012099D01*
X170160613Y-105008146D01*
X170811910Y-105004883D01*
X171540100Y-105002248D01*
X172349620Y-105000176D01*
X173244907Y-104998604D01*
X174230400Y-104997468D01*
X175310535Y-104996705D01*
X176489750Y-104996249D01*
X177772483Y-104996039D01*
X179163172Y-104996010D01*
X180666253Y-104996098D01*
X182286165Y-104996240D01*
X184027344Y-104996372D01*
X185894229Y-104996431D01*
X166012010Y-105926948D02*
X166020567Y-105903485D01*
X166029678Y-105880019D01*
X166039330Y-105856567D01*
X166049508Y-105833151D01*
X166060200Y-105809791D01*
X166071391Y-105786507D01*
X166083069Y-105763320D01*
X166095220Y-105740249D01*
X166107830Y-105717315D01*
X166120887Y-105694537D01*
X166134375Y-105671937D01*
X166148283Y-105649534D01*
X166162596Y-105627349D01*
X166177302Y-105605402D01*
X166192385Y-105583713D01*
X166207834Y-105562302D01*
X166223635Y-105541189D01*
X166239774Y-105520395D01*
X166256237Y-105499940D01*
X166273011Y-105479844D01*
X166290084Y-105460128D01*
X166307440Y-105440811D01*
X166325067Y-105421914D01*
X166342951Y-105403457D01*
X166361080Y-105385460D01*
X166379438Y-105367943D01*
X166398013Y-105350927D01*
X166416792Y-105334432D01*
X166435761Y-105318478D01*
X166454905Y-105303086D01*
X166474213Y-105288275D01*
X166493671Y-105274066D01*
X165928800Y-112150125D02*
X165930526Y-111731341D01*
X165932260Y-111329954D01*
X165934005Y-110945670D01*
X165935766Y-110578197D01*
X165937549Y-110227242D01*
X165939358Y-109892514D01*
X165941199Y-109573719D01*
X165943076Y-109270565D01*
X165944995Y-108982760D01*
X165946960Y-108710011D01*
X165948976Y-108452027D01*
X165951049Y-108208513D01*
X165953183Y-107979179D01*
X165955383Y-107763732D01*
X165957655Y-107561879D01*
X165960003Y-107373328D01*
X165962432Y-107197786D01*
X165964948Y-107034961D01*
X165967555Y-106884561D01*
X165970257Y-106746293D01*
X165973062Y-106619865D01*
X165975972Y-106504984D01*
X165978993Y-106401358D01*
X165982131Y-106308695D01*
X165985389Y-106226702D01*
X165988774Y-106155086D01*
X165992290Y-106093555D01*
X165995942Y-106041818D01*
X165999735Y-105999581D01*
X166003674Y-105966552D01*
X166007764Y-105942438D01*
X166012010Y-105926948D01*
D10*
X165905864Y-118215684D02*
X165928800Y-112150125D01*
X165799184Y-118488784D02*
X165905864Y-118215684D01*
D11*
X165271384Y-119488909D02*
X165285230Y-119470585D01*
X165299779Y-119450436D01*
X165314978Y-119428560D01*
X165330773Y-119405056D01*
X165347113Y-119380024D01*
X165363942Y-119353562D01*
X165381208Y-119325770D01*
X165398858Y-119296747D01*
X165416839Y-119266593D01*
X165435096Y-119235405D01*
X165453578Y-119203285D01*
X165472231Y-119170330D01*
X165491001Y-119136640D01*
X165509836Y-119102314D01*
X165528682Y-119067452D01*
X165547485Y-119032152D01*
X165566194Y-118996513D01*
X165584753Y-118960636D01*
X165603111Y-118924619D01*
X165621214Y-118888560D01*
X165639009Y-118852561D01*
X165656442Y-118816718D01*
X165673461Y-118781133D01*
X165690011Y-118745903D01*
X165706041Y-118711129D01*
X165721496Y-118676909D01*
X165736323Y-118643342D01*
X165750470Y-118610529D01*
X165763883Y-118578567D01*
X165776508Y-118547556D01*
X165788293Y-118517595D01*
X165799184Y-118488784D01*
X164164846Y-120530640D02*
X164197567Y-120506852D01*
X164231408Y-120481559D01*
X164266268Y-120454853D01*
X164302047Y-120426830D01*
X164338645Y-120397582D01*
X164375963Y-120367205D01*
X164413900Y-120335791D01*
X164452357Y-120303436D01*
X164491233Y-120270233D01*
X164530429Y-120236276D01*
X164569844Y-120201660D01*
X164609379Y-120166478D01*
X164648935Y-120130825D01*
X164688410Y-120094794D01*
X164727705Y-120058480D01*
X164766721Y-120021976D01*
X164805357Y-119985377D01*
X164843513Y-119948776D01*
X164881089Y-119912269D01*
X164917987Y-119875948D01*
X164954104Y-119839908D01*
X164989343Y-119804243D01*
X165023602Y-119769047D01*
X165056782Y-119734415D01*
X165088783Y-119700439D01*
X165119505Y-119667214D01*
X165148848Y-119634835D01*
X165176712Y-119603395D01*
X165202998Y-119572988D01*
X165227605Y-119543709D01*
X165250433Y-119515651D01*
X165271384Y-119488909D01*
X151922516Y-123526427D02*
X152479777Y-123484836D01*
X153025581Y-123439931D01*
X153559948Y-123391708D01*
X154082896Y-123340162D01*
X154594444Y-123285289D01*
X155094610Y-123227085D01*
X155583412Y-123165546D01*
X156060870Y-123100666D01*
X156527002Y-123032443D01*
X156981827Y-122960872D01*
X157425362Y-122885949D01*
X157857628Y-122807669D01*
X158278642Y-122726028D01*
X158688422Y-122641022D01*
X159086989Y-122552646D01*
X159474360Y-122460897D01*
X159850553Y-122365770D01*
X160215588Y-122267261D01*
X160569483Y-122165366D01*
X160912256Y-122060080D01*
X161243927Y-121951399D01*
X161564514Y-121839320D01*
X161874035Y-121723836D01*
X162172509Y-121604946D01*
X162459955Y-121482643D01*
X162736391Y-121356925D01*
X163001836Y-121227786D01*
X163256309Y-121095223D01*
X163499827Y-120959231D01*
X163732410Y-120819806D01*
X163954077Y-120676943D01*
X164164846Y-120530640D01*
X145023520Y-123526427D02*
X145138716Y-123533577D01*
X145273318Y-123540266D01*
X145426032Y-123546493D01*
X145595566Y-123552260D01*
X145780626Y-123557565D01*
X145979920Y-123562409D01*
X146192156Y-123566791D01*
X146416040Y-123570712D01*
X146650279Y-123574172D01*
X146893581Y-123577170D01*
X147144654Y-123579708D01*
X147402203Y-123581784D01*
X147664937Y-123583398D01*
X147931563Y-123584551D01*
X148200787Y-123585243D01*
X148471318Y-123585474D01*
X148741861Y-123585243D01*
X149011126Y-123584551D01*
X149277818Y-123583398D01*
X149540645Y-123581784D01*
X149798314Y-123579708D01*
X150049532Y-123577170D01*
X150293007Y-123574172D01*
X150527445Y-123570712D01*
X150751555Y-123566791D01*
X150964043Y-123562409D01*
X151163616Y-123557565D01*
X151348982Y-123552260D01*
X151518848Y-123546493D01*
X151671920Y-123540266D01*
X151806907Y-123533577D01*
X151922516Y-123526427D01*
X135832505Y-121989195D02*
X136051231Y-122060415D01*
X136273418Y-122129971D01*
X136499164Y-122197878D01*
X136728562Y-122264154D01*
X136961710Y-122328815D01*
X137198702Y-122391879D01*
X137439634Y-122453363D01*
X137684603Y-122513283D01*
X137933703Y-122571656D01*
X138187031Y-122628500D01*
X138444681Y-122683832D01*
X138706751Y-122737667D01*
X138973336Y-122790024D01*
X139244530Y-122840920D01*
X139520431Y-122890370D01*
X139801134Y-122938393D01*
X140086734Y-122985005D01*
X140377327Y-123030224D01*
X140673009Y-123074065D01*
X140973876Y-123116546D01*
X141280023Y-123157685D01*
X141591547Y-123197497D01*
X141908542Y-123236001D01*
X142231104Y-123273212D01*
X142559330Y-123309149D01*
X142893314Y-123343827D01*
X143233154Y-123377264D01*
X143578943Y-123409477D01*
X143930779Y-123440483D01*
X144288756Y-123470298D01*
X144652971Y-123498941D01*
X145023520Y-123526427D01*
X131077511Y-118261823D02*
X131125106Y-118414487D01*
X131178575Y-118564326D01*
X131237980Y-118711387D01*
X131303387Y-118855721D01*
X131374860Y-118997376D01*
X131452463Y-119136402D01*
X131536260Y-119272847D01*
X131626317Y-119406761D01*
X131722696Y-119538193D01*
X131825462Y-119667192D01*
X131934681Y-119793808D01*
X132050415Y-119918089D01*
X132172729Y-120040085D01*
X132301688Y-120159844D01*
X132437357Y-120277417D01*
X132579798Y-120392852D01*
X132729077Y-120506198D01*
X132885258Y-120617505D01*
X133048405Y-120726822D01*
X133218582Y-120834197D01*
X133395855Y-120939681D01*
X133580286Y-121043321D01*
X133771941Y-121145169D01*
X133970884Y-121245271D01*
X134177179Y-121343679D01*
X134390890Y-121440440D01*
X134612082Y-121535605D01*
X134840820Y-121629221D01*
X135077166Y-121721340D01*
X135321186Y-121812008D01*
X135572944Y-121901277D01*
X135832505Y-121989195D01*
X130970831Y-112011175D02*
X130972968Y-112511125D01*
X130975038Y-112982774D01*
X130977055Y-113426987D01*
X130979035Y-113844628D01*
X130980991Y-114236562D01*
X130982938Y-114603654D01*
X130984890Y-114946770D01*
X130986862Y-115266773D01*
X130988867Y-115564529D01*
X130990921Y-115840902D01*
X130993038Y-116096758D01*
X130995232Y-116332961D01*
X130997518Y-116550377D01*
X130999909Y-116749869D01*
X131002421Y-116932303D01*
X131005068Y-117098544D01*
X131007864Y-117249456D01*
X131010824Y-117385904D01*
X131013962Y-117508754D01*
X131017292Y-117618870D01*
X131020829Y-117717117D01*
X131024587Y-117804359D01*
X131028581Y-117881463D01*
X131032826Y-117949292D01*
X131037334Y-118008711D01*
X131042122Y-118060585D01*
X131047203Y-118105779D01*
X131052591Y-118145159D01*
X131058302Y-118179588D01*
X131064349Y-118209932D01*
X131070747Y-118237055D01*
X131077511Y-118261823D01*
X130864417Y-105852805D02*
X130871555Y-105869994D01*
X130878278Y-105889225D01*
X130884604Y-105911426D01*
X130890550Y-105937521D01*
X130896131Y-105968438D01*
X130901365Y-106005104D01*
X130906269Y-106048444D01*
X130910860Y-106099385D01*
X130915154Y-106158854D01*
X130919169Y-106227777D01*
X130922920Y-106307080D01*
X130926426Y-106397691D01*
X130929703Y-106500535D01*
X130932767Y-106616540D01*
X130935636Y-106746630D01*
X130938326Y-106891734D01*
X130940855Y-107052777D01*
X130943238Y-107230687D01*
X130945494Y-107426388D01*
X130947638Y-107640809D01*
X130949688Y-107874875D01*
X130951661Y-108129513D01*
X130953573Y-108405650D01*
X130955441Y-108704211D01*
X130957282Y-109026123D01*
X130959113Y-109372314D01*
X130960951Y-109743709D01*
X130962812Y-110141234D01*
X130964714Y-110565817D01*
X130966673Y-111018384D01*
X130968706Y-111499861D01*
X130970831Y-112011175D01*
X130165130Y-105172187D02*
X130191233Y-105184385D01*
X130217461Y-105197551D01*
X130243773Y-105211647D01*
X130270130Y-105226635D01*
X130296492Y-105242476D01*
X130322818Y-105259132D01*
X130349069Y-105276564D01*
X130375206Y-105294735D01*
X130401188Y-105313606D01*
X130426975Y-105333139D01*
X130452528Y-105353295D01*
X130477806Y-105374036D01*
X130502771Y-105395325D01*
X130527381Y-105417122D01*
X130551598Y-105439390D01*
X130575381Y-105462089D01*
X130598690Y-105485183D01*
X130621487Y-105508631D01*
X130643730Y-105532398D01*
X130665380Y-105556443D01*
X130686397Y-105580728D01*
X130706741Y-105605216D01*
X130726373Y-105629869D01*
X130745252Y-105654647D01*
X130763339Y-105679512D01*
X130780594Y-105704427D01*
X130796977Y-105729352D01*
X130812448Y-105754251D01*
X130826967Y-105779083D01*
X130840495Y-105803812D01*
X130852991Y-105828398D01*
X130864417Y-105852805D01*
D10*
X129929101Y-105065507D02*
X130165130Y-105172187D01*
X116663362Y-105037770D02*
X129929101Y-105065507D01*
D11*
X98480530Y-105000699D02*
X98749887Y-105001189D01*
X99050175Y-105001756D01*
X99380227Y-105002399D01*
X99738880Y-105003112D01*
X100124969Y-105003892D01*
X100537327Y-105004736D01*
X100974792Y-105005641D01*
X101436197Y-105006603D01*
X101920377Y-105007618D01*
X102426169Y-105008684D01*
X102952406Y-105009796D01*
X103497924Y-105010951D01*
X104061559Y-105012146D01*
X104642145Y-105013377D01*
X105238517Y-105014640D01*
X105849511Y-105015933D01*
X106473961Y-105017252D01*
X107110702Y-105018593D01*
X107758571Y-105019953D01*
X108416401Y-105021328D01*
X109083028Y-105022715D01*
X109757287Y-105024111D01*
X110438013Y-105025512D01*
X111124042Y-105026914D01*
X111814208Y-105028314D01*
X112507346Y-105029709D01*
X113202292Y-105031095D01*
X113897880Y-105032468D01*
X114592946Y-105033826D01*
X115286325Y-105035164D01*
X115976852Y-105036480D01*
X116663362Y-105037770D01*
D10*
X93558629Y-104996431D02*
X98480530Y-105000699D01*
X93558629Y-79993306D02*
X93558629Y-104996431D01*
X111421961Y-79983972D02*
X93558629Y-79993306D01*
X129280753Y-79969837D02*
X111421961Y-79983972D01*
X129507448Y-79858623D02*
X129280753Y-79969837D01*
D11*
X130262476Y-78743017D02*
X130258749Y-78789556D01*
X130253674Y-78835410D01*
X130247257Y-78880570D01*
X130239506Y-78925030D01*
X130230426Y-78968784D01*
X130220025Y-79011825D01*
X130208308Y-79054145D01*
X130195283Y-79095739D01*
X130180957Y-79136600D01*
X130165335Y-79176721D01*
X130148425Y-79216095D01*
X130130234Y-79254716D01*
X130110767Y-79292577D01*
X130090031Y-79329671D01*
X130068034Y-79365991D01*
X130044781Y-79401532D01*
X130020280Y-79436285D01*
X129994537Y-79470245D01*
X129967559Y-79503405D01*
X129939351Y-79535758D01*
X129909922Y-79567298D01*
X129879278Y-79598017D01*
X129847425Y-79627909D01*
X129814369Y-79656968D01*
X129780118Y-79685186D01*
X129744679Y-79712557D01*
X129708057Y-79739075D01*
X129670260Y-79764732D01*
X129631293Y-79789522D01*
X129591165Y-79813438D01*
X129549881Y-79836474D01*
X129507448Y-79858623D01*
X130021645Y-77608475D02*
X130043154Y-77676575D01*
X130063448Y-77741152D01*
X130082557Y-77802348D01*
X130100514Y-77860304D01*
X130117349Y-77915163D01*
X130133093Y-77967066D01*
X130147779Y-78016154D01*
X130161437Y-78062569D01*
X130174099Y-78106453D01*
X130185796Y-78147947D01*
X130196560Y-78187194D01*
X130206421Y-78224334D01*
X130215412Y-78259510D01*
X130223563Y-78292863D01*
X130230906Y-78324535D01*
X130237472Y-78354668D01*
X130243293Y-78383402D01*
X130248400Y-78410881D01*
X130252824Y-78437245D01*
X130256596Y-78462636D01*
X130259749Y-78487196D01*
X130262313Y-78511066D01*
X130264320Y-78534389D01*
X130265801Y-78557306D01*
X130266787Y-78579958D01*
X130267310Y-78602487D01*
X130267401Y-78625035D01*
X130267092Y-78647744D01*
X130266413Y-78670754D01*
X130265397Y-78694209D01*
X130264074Y-78718249D01*
X130262476Y-78743017D01*
X129229813Y-73131115D02*
X129214122Y-73209575D01*
X129200913Y-73291330D01*
X129190199Y-73376448D01*
X129181992Y-73464995D01*
X129176305Y-73557039D01*
X129173150Y-73652646D01*
X129172540Y-73751883D01*
X129174489Y-73854818D01*
X129179008Y-73961516D01*
X129186110Y-74072046D01*
X129195809Y-74186473D01*
X129208116Y-74304866D01*
X129223045Y-74427291D01*
X129240607Y-74553814D01*
X129260817Y-74684504D01*
X129283686Y-74819426D01*
X129309227Y-74958648D01*
X129337453Y-75102236D01*
X129368377Y-75250259D01*
X129402011Y-75402782D01*
X129438368Y-75559872D01*
X129477461Y-75721597D01*
X129519302Y-75888024D01*
X129563904Y-76059218D01*
X129611280Y-76235249D01*
X129661443Y-76416181D01*
X129714404Y-76602083D01*
X129770178Y-76793021D01*
X129828776Y-76989062D01*
X129890211Y-77190274D01*
X129954497Y-77396722D01*
X130021645Y-77608475D01*
X130327284Y-71265015D02*
X130275256Y-71315321D01*
X130224244Y-71366364D01*
X130174261Y-71418120D01*
X130125320Y-71470569D01*
X130077433Y-71523688D01*
X130030613Y-71577455D01*
X129984873Y-71631849D01*
X129940227Y-71686847D01*
X129896685Y-71742427D01*
X129854263Y-71798568D01*
X129812971Y-71855248D01*
X129772823Y-71912444D01*
X129733833Y-71970135D01*
X129696011Y-72028299D01*
X129659372Y-72086914D01*
X129623929Y-72145958D01*
X129589693Y-72205409D01*
X129556678Y-72265246D01*
X129524897Y-72325445D01*
X129494361Y-72385986D01*
X129465086Y-72446846D01*
X129437082Y-72508003D01*
X129410362Y-72569436D01*
X129384940Y-72631123D01*
X129360829Y-72693041D01*
X129338041Y-72755169D01*
X129316588Y-72817485D01*
X129296485Y-72879967D01*
X129277742Y-72942593D01*
X129260374Y-73005341D01*
X129244393Y-73068188D01*
X129229813Y-73131115D01*
X136466984Y-66176646D02*
X136169199Y-66421296D01*
X135874332Y-66663670D01*
X135582773Y-66903443D01*
X135294914Y-67140289D01*
X135011147Y-67373884D01*
X134731864Y-67603903D01*
X134457456Y-67830021D01*
X134188315Y-68051913D01*
X133924833Y-68269255D01*
X133667401Y-68481721D01*
X133416410Y-68688987D01*
X133172253Y-68890728D01*
X132935321Y-69086619D01*
X132706006Y-69276336D01*
X132484699Y-69459552D01*
X132271793Y-69635944D01*
X132067678Y-69805187D01*
X131872746Y-69966956D01*
X131687390Y-70120925D01*
X131512000Y-70266771D01*
X131346968Y-70404168D01*
X131192687Y-70532792D01*
X131049547Y-70652317D01*
X130917940Y-70762418D01*
X130798259Y-70862772D01*
X130690893Y-70953053D01*
X130596237Y-71032936D01*
X130514680Y-71102096D01*
X130446614Y-71160209D01*
X130392432Y-71206950D01*
X130352524Y-71241993D01*
X130327284Y-71265015D01*
D10*
X142263975Y-61412051D02*
X136466984Y-66176646D01*
X142333317Y-61176021D02*
X142263975Y-61412051D01*
D11*
X142703764Y-59851856D02*
X142688140Y-59907824D01*
X142672541Y-59963708D01*
X142656989Y-60019423D01*
X142641509Y-60074882D01*
X142626123Y-60129999D01*
X142610856Y-60184690D01*
X142595731Y-60238868D01*
X142580773Y-60292448D01*
X142566004Y-60345344D01*
X142551449Y-60397469D01*
X142537132Y-60448740D01*
X142523075Y-60499069D01*
X142509303Y-60548371D01*
X142495840Y-60596561D01*
X142482709Y-60643552D01*
X142469934Y-60689260D01*
X142457539Y-60733598D01*
X142445547Y-60776480D01*
X142433982Y-60817821D01*
X142422869Y-60857536D01*
X142412230Y-60895537D01*
X142402089Y-60931741D01*
X142392471Y-60966061D01*
X142383398Y-60998411D01*
X142374895Y-61028706D01*
X142366985Y-61056859D01*
X142359693Y-61082786D01*
X142353041Y-61106401D01*
X142347054Y-61127617D01*
X142341755Y-61146350D01*
X142337168Y-61162513D01*
X142333317Y-61176021D01*
X143162221Y-58254323D02*
X143153622Y-58281637D01*
X143144350Y-58311453D01*
X143134433Y-58343667D01*
X143123903Y-58378175D01*
X143112790Y-58414872D01*
X143101125Y-58453653D01*
X143088938Y-58494415D01*
X143076260Y-58537053D01*
X143063120Y-58581463D01*
X143049550Y-58627540D01*
X143035580Y-58675181D01*
X143021240Y-58724279D01*
X143006562Y-58774732D01*
X142991574Y-58826435D01*
X142976309Y-58879284D01*
X142960795Y-58933174D01*
X142945065Y-58988000D01*
X142929148Y-59043659D01*
X142913074Y-59100047D01*
X142896875Y-59157058D01*
X142880580Y-59214588D01*
X142864221Y-59272533D01*
X142847827Y-59330789D01*
X142831429Y-59389252D01*
X142815058Y-59447816D01*
X142798744Y-59506378D01*
X142782517Y-59564833D01*
X142766409Y-59623077D01*
X142750448Y-59681006D01*
X142734667Y-59738515D01*
X142719095Y-59795499D01*
X142703764Y-59851856D01*
X147755329Y-52915789D02*
X147567928Y-52938668D01*
X147383374Y-52970849D01*
X147201663Y-53012333D01*
X147022795Y-53063115D01*
X146846768Y-53123196D01*
X146673581Y-53192573D01*
X146503231Y-53271245D01*
X146335717Y-53359210D01*
X146171039Y-53456468D01*
X146009193Y-53563015D01*
X145850179Y-53678851D01*
X145693995Y-53803974D01*
X145540640Y-53938383D01*
X145390112Y-54082076D01*
X145242408Y-54235051D01*
X145097529Y-54397307D01*
X144955472Y-54568842D01*
X144816236Y-54749655D01*
X144679818Y-54939744D01*
X144546219Y-55139108D01*
X144415435Y-55347745D01*
X144287465Y-55565653D01*
X144162309Y-55792831D01*
X144039964Y-56029277D01*
X143920428Y-56274991D01*
X143803701Y-56529969D01*
X143689780Y-56794211D01*
X143578664Y-57067716D01*
X143470352Y-57350481D01*
X143364842Y-57642504D01*
X143262132Y-57943785D01*
X143162221Y-58254323D01*
D12*
X150114000Y-57277000D02*
G75*
G03*
X150114000Y-57277000I-1905000J0D01*
G01*
M02*
