%TF.GenerationSoftware,KiCad,Pcbnew,(6.0.5)*%
%TF.CreationDate,2022-06-06T11:17:47-07:00*%
%TF.ProjectId,Satellite_PCB,53617465-6c6c-4697-9465-5f5043422e6b,rev?*%
%TF.SameCoordinates,Original*%
%TF.FileFunction,Profile,NP*%
%FSLAX46Y46*%
G04 Gerber Fmt 4.6, Leading zero omitted, Abs format (unit mm)*
G04 Created by KiCad (PCBNEW (6.0.5)) date 2022-06-06 11:17:47*
%MOMM*%
%LPD*%
G01*
G04 APERTURE LIST*
%TA.AperFunction,Profile*%
%ADD10C,0.192925*%
%TD*%
%TA.AperFunction,Profile*%
%ADD11C,0.100000*%
%TD*%
G04 APERTURE END LIST*
D10*
X148687037Y-52979220D02*
X149065519Y-53035373D01*
X149425018Y-53126393D01*
X149766115Y-53250179D01*
X150089388Y-53404629D01*
X150395417Y-53587642D01*
X150684782Y-53797117D01*
X150958062Y-54030953D01*
X151215837Y-54287047D01*
X151458686Y-54563300D01*
X151687190Y-54857609D01*
X151901927Y-55167873D01*
X152292420Y-55827862D01*
X152634803Y-56526456D01*
X152933712Y-57246844D01*
X153193785Y-57972216D01*
X153419657Y-58685762D01*
X153615965Y-59370671D01*
X153938438Y-60587336D01*
X154198297Y-61487727D01*
X165461289Y-70748150D01*
X165585978Y-70837388D01*
X165705103Y-70927429D01*
X165818786Y-71018185D01*
X165927150Y-71109566D01*
X166030317Y-71201482D01*
X166128409Y-71293844D01*
X166309858Y-71479550D01*
X166472473Y-71665967D01*
X166617234Y-71852382D01*
X166745117Y-72038079D01*
X166857101Y-72222343D01*
X166954164Y-72404459D01*
X167037282Y-72583713D01*
X167107435Y-72759388D01*
X167165600Y-72930771D01*
X167212755Y-73097147D01*
X167249877Y-73257800D01*
X167277944Y-73412015D01*
X167297934Y-73559077D01*
X167309507Y-73667114D01*
X167309507Y-73823385D01*
X167307585Y-73873543D01*
X167302618Y-73965055D01*
X167296430Y-74057245D01*
X167289067Y-74150068D01*
X167280574Y-74243479D01*
X167260377Y-74431883D01*
X167236203Y-74622095D01*
X167153242Y-75125631D01*
X166972725Y-76049244D01*
X166797634Y-76922249D01*
X166483406Y-78441632D01*
X166469716Y-78516501D01*
X166460308Y-78591598D01*
X166455141Y-78666755D01*
X166454173Y-78741800D01*
X166457365Y-78816565D01*
X166464675Y-78890881D01*
X166476061Y-78964577D01*
X166491483Y-79037483D01*
X166510901Y-79109432D01*
X166534272Y-79180252D01*
X166561556Y-79249774D01*
X166592712Y-79317829D01*
X166627699Y-79384247D01*
X166666476Y-79448858D01*
X166709002Y-79511494D01*
X166755236Y-79571984D01*
X166804799Y-79629742D01*
X166857235Y-79684320D01*
X166912384Y-79735640D01*
X166970090Y-79783628D01*
X167030194Y-79828210D01*
X167092539Y-79869309D01*
X167156968Y-79906851D01*
X167223323Y-79940760D01*
X167291445Y-79970961D01*
X167361178Y-79997379D01*
X167432363Y-80019940D01*
X167504844Y-80038567D01*
X167578462Y-80053185D01*
X167653059Y-80063720D01*
X167728479Y-80070096D01*
X167804563Y-80072238D01*
X204733200Y-80072238D01*
X204733200Y-105067662D01*
X167396335Y-105067662D01*
X167326839Y-105069419D01*
X167258255Y-105074634D01*
X167190669Y-105083222D01*
X167124164Y-105095099D01*
X167058827Y-105110179D01*
X166994741Y-105128377D01*
X166931992Y-105149608D01*
X166870664Y-105173789D01*
X166810843Y-105200834D01*
X166752613Y-105230657D01*
X166696059Y-105263175D01*
X166641266Y-105298302D01*
X166588318Y-105335954D01*
X166537301Y-105376045D01*
X166488299Y-105418492D01*
X166441398Y-105463208D01*
X166396682Y-105510109D01*
X166354236Y-105559111D01*
X166314144Y-105610128D01*
X166276493Y-105663075D01*
X166241365Y-105717868D01*
X166208848Y-105774423D01*
X166179024Y-105832653D01*
X166151979Y-105892474D01*
X166127799Y-105953802D01*
X166106567Y-106016551D01*
X166088369Y-106080636D01*
X166073289Y-106145974D01*
X166061413Y-106212478D01*
X166052825Y-106280065D01*
X166047610Y-106348648D01*
X166045852Y-106418144D01*
X166045852Y-117600109D01*
X166022285Y-117992761D01*
X165992842Y-118184590D01*
X165951639Y-118373411D01*
X165898687Y-118559215D01*
X165833995Y-118741994D01*
X165669436Y-119098444D01*
X165458043Y-119442697D01*
X165199899Y-119774688D01*
X164895086Y-120094352D01*
X164543684Y-120401623D01*
X164145778Y-120696437D01*
X163701447Y-120978730D01*
X163210775Y-121248435D01*
X162673844Y-121505488D01*
X162090734Y-121749824D01*
X161461529Y-121981378D01*
X160786311Y-122200085D01*
X160065160Y-122405880D01*
X158860609Y-122698633D01*
X157572293Y-122955506D01*
X156209053Y-123175527D01*
X154779728Y-123357724D01*
X153293159Y-123501125D01*
X151758185Y-123604758D01*
X150183646Y-123667650D01*
X148578382Y-123688830D01*
X146972561Y-123667650D01*
X145397759Y-123604758D01*
X143862750Y-123501125D01*
X142376303Y-123357724D01*
X140947193Y-123175527D01*
X139584189Y-122955506D01*
X138296065Y-122698633D01*
X137091593Y-122405880D01*
X136370103Y-122200085D01*
X135694587Y-121981378D01*
X135065125Y-121749824D01*
X134481795Y-121505488D01*
X134207454Y-121378547D01*
X133944677Y-121248435D01*
X133693472Y-121115160D01*
X133453849Y-120978730D01*
X133225819Y-120839153D01*
X133009391Y-120696437D01*
X132804576Y-120550591D01*
X132611383Y-120401623D01*
X132429822Y-120249540D01*
X132259902Y-120094352D01*
X132101635Y-119936065D01*
X131955029Y-119774688D01*
X131820095Y-119610229D01*
X131696842Y-119442697D01*
X131585281Y-119272099D01*
X131485421Y-119098444D01*
X131397273Y-118921739D01*
X131320845Y-118741994D01*
X131256148Y-118559215D01*
X131203192Y-118373411D01*
X131161987Y-118184590D01*
X131132543Y-117992761D01*
X131114869Y-117797931D01*
X131108975Y-117600109D01*
X131098364Y-106470428D01*
X131096540Y-106401058D01*
X131091271Y-106332597D01*
X131082640Y-106265131D01*
X131070733Y-106198744D01*
X131055633Y-106133520D01*
X131037425Y-106069544D01*
X131016193Y-106006901D01*
X130992023Y-105945675D01*
X130964997Y-105885951D01*
X130935202Y-105827814D01*
X130902721Y-105771347D01*
X130867639Y-105716636D01*
X130830040Y-105663765D01*
X130790009Y-105612818D01*
X130747629Y-105563881D01*
X130702987Y-105517037D01*
X130656166Y-105472372D01*
X130607250Y-105429970D01*
X130556324Y-105389915D01*
X130503473Y-105352292D01*
X130448781Y-105317186D01*
X130392332Y-105284681D01*
X130334211Y-105254862D01*
X130274502Y-105227813D01*
X130213290Y-105203619D01*
X130150659Y-105182365D01*
X130086694Y-105164135D01*
X130021480Y-105149013D01*
X129955100Y-105137084D01*
X129887639Y-105128433D01*
X129819181Y-105123144D01*
X129749812Y-105121303D01*
X93666000Y-105067662D01*
X93666000Y-80072238D01*
X129061652Y-80068574D01*
X129143591Y-80066084D01*
X129224690Y-80058679D01*
X129304758Y-80046460D01*
X129383601Y-80029528D01*
X129461026Y-80007983D01*
X129536841Y-79981924D01*
X129610853Y-79951453D01*
X129682869Y-79916670D01*
X129752697Y-79877674D01*
X129820144Y-79834568D01*
X129885016Y-79787449D01*
X129947122Y-79736420D01*
X130006269Y-79681580D01*
X130062263Y-79623030D01*
X130114913Y-79560870D01*
X130164024Y-79495200D01*
X130209061Y-79426704D01*
X130249592Y-79356073D01*
X130285589Y-79283522D01*
X130317024Y-79209265D01*
X130343869Y-79133518D01*
X130366094Y-79056497D01*
X130383672Y-78978417D01*
X130396573Y-78899493D01*
X130404770Y-78819940D01*
X130408233Y-78739974D01*
X130406934Y-78659810D01*
X130400845Y-78579664D01*
X130389937Y-78499751D01*
X130374181Y-78420285D01*
X130353549Y-78341484D01*
X130328012Y-78263561D01*
X130117017Y-77643276D01*
X130009619Y-77308344D01*
X129902371Y-76958567D01*
X129796334Y-76595206D01*
X129692572Y-76219525D01*
X129592147Y-75832782D01*
X129496121Y-75436241D01*
X129343707Y-74624023D01*
X129318414Y-74430556D01*
X129307453Y-74335292D01*
X129297644Y-74241068D01*
X129289012Y-74147928D01*
X129281577Y-74055920D01*
X129275364Y-73965086D01*
X129270394Y-73875474D01*
X129268466Y-73827241D01*
X129268466Y-73663253D01*
X129281970Y-73547501D01*
X129304839Y-73389376D01*
X129335063Y-73232693D01*
X129372577Y-73077580D01*
X129417320Y-72924170D01*
X129469230Y-72772590D01*
X129528245Y-72622972D01*
X129594302Y-72475445D01*
X129667340Y-72330140D01*
X129747295Y-72187185D01*
X129834107Y-72046713D01*
X129927713Y-71908851D01*
X130028050Y-71773731D01*
X130135057Y-71641482D01*
X130248672Y-71512234D01*
X130368831Y-71386117D01*
X130495474Y-71263262D01*
X130595794Y-71172587D01*
X130917980Y-70910207D01*
X130943060Y-70890917D01*
X142379682Y-61487727D01*
X142504103Y-61085471D01*
X142639541Y-60587336D01*
X142962013Y-59370671D01*
X143158321Y-58685762D01*
X143384193Y-57972216D01*
X143644265Y-57246844D01*
X143943174Y-56526456D01*
X144108642Y-56173384D01*
X144285557Y-55827862D01*
X144474500Y-55491991D01*
X144676051Y-55167873D01*
X144890788Y-54857609D01*
X145119292Y-54563300D01*
X145362141Y-54287047D01*
X145619917Y-54030953D01*
X145893197Y-53797117D01*
X146182563Y-53587642D01*
X146488592Y-53404629D01*
X146811866Y-53250179D01*
X147152963Y-53126393D01*
X147512463Y-53035373D01*
X147890947Y-52979220D01*
X148288992Y-52960035D01*
X148687037Y-52979220D01*
D11*
X150114000Y-57277000D02*
G75*
G03*
X150114000Y-57277000I-1905000J0D01*
G01*
M02*
