M48
; DRILL file {KiCad (6.0.1)} date Fri May 20 13:53:33 2022
; FORMAT={-:-/ absolute / inch / decimal}
; #@! TF.CreationDate,2022-05-20T13:53:33-07:00
; #@! TF.GenerationSoftware,Kicad,Pcbnew,(6.0.1)
; #@! TF.FileFunction,Plated,1,2,PTH
FMAT,2
INCH
; #@! TA.AperFunction,Plated,PTH,ViaDrill
T1C0.0150
%
G90
G05
T1
X3.869Y-3.271
X3.879Y-3.591
X4.099Y-3.681
X4.099Y-4.011
X4.309Y-3.591
X4.319Y-3.271
X4.539Y-3.681
X4.539Y-4.011
X4.759Y-3.261
X4.829Y-3.561
X4.979Y-3.681
X4.979Y-4.011
X5.174Y-3.296
X5.189Y-2.811
X5.279Y-3.301
X5.309Y-3.831
X5.329Y-3.551
X5.338Y-3.247
X5.379Y-3.431
X5.669Y-2.491
X5.709Y-2.671
X5.729Y-4.691
X5.739Y-3.671
X5.749Y-3.571
X5.759Y-3.301
X5.779Y-3.391
X5.805Y-2.716
X5.889Y-3.391
X5.929Y-3.561
X5.939Y-2.621
X5.969Y-4.681
X5.999Y-2.461
X6.009Y-3.491
X6.089Y-3.881
X6.159Y-3.631
X6.206Y-3.264
X6.212Y-3.4
X6.279Y-3.217
X6.32Y-3.711
X6.579Y-3.611
X6.729Y-3.691
X6.729Y-4.001
X6.949Y-3.281
X6.949Y-3.601
X7.169Y-3.691
X7.169Y-4.001
X7.389Y-3.281
X7.399Y-3.601
X7.609Y-3.691
X7.609Y-4.001
X7.789Y-3.601
X7.849Y-3.281
T0
M30
